<svg width="100" height="100" viewBox="0 0 100 100" fill="none" xmlns="http://www.w3.org/2000/svg">
<path d="M33.2397 63.8097L20.8647 76.3097C19.4897 77.5597 17.6564 78.3931 15.6564 78.3931C13.7225 78.3931 11.8679 77.6248 10.5004 76.2574C9.13297 74.8899 8.36475 73.0353 8.36475 71.1014V70.0597L12.5314 39.3097C13.4064 29.6847 21.4481 22.1431 31.2814 22.1431H68.7814C78.6148 22.1431 86.6564 29.6847 87.5314 39.3097L91.6981 70.0597V71.1014C91.6981 73.0353 90.9299 74.8899 89.5624 76.2574C88.195 77.6248 86.3403 78.3931 84.4064 78.3931C82.4064 78.3931 80.5731 77.5597 79.1981 76.3097L66.8231 63.8097H33.2397ZM29.1981 30.4764V38.8097H20.8647V42.9764H29.1981V51.3097H33.3647V42.9764H41.6981V38.8097H33.3647V30.4764H29.1981ZM68.7814 30.4764C67.9526 30.4764 67.1578 30.8056 66.5717 31.3917C65.9857 31.9777 65.6564 32.7726 65.6564 33.6014C65.6564 34.4302 65.9857 35.2251 66.5717 35.8111C67.1578 36.3972 67.9526 36.7264 68.7814 36.7264C69.6102 36.7264 70.4051 36.3972 70.9911 35.8111C71.5772 35.2251 71.9064 34.4302 71.9064 33.6014C71.9064 32.7726 71.5772 31.9777 70.9911 31.3917C70.4051 30.8056 69.6102 30.4764 68.7814 30.4764ZM61.4897 37.7681C60.6609 37.7681 59.8661 38.0973 59.28 38.6834C58.694 39.2694 58.3647 40.0643 58.3647 40.8931C58.3647 41.7219 58.694 42.5167 59.28 43.1028C59.8661 43.6888 60.6609 44.0181 61.4897 44.0181C62.3186 44.0181 63.1134 43.6888 63.6995 43.1028C64.2855 42.5167 64.6147 41.7219 64.6147 40.8931C64.6147 40.0643 64.2855 39.2694 63.6995 38.6834C63.1134 38.0973 62.3186 37.7681 61.4897 37.7681ZM76.0731 37.7681C75.2443 37.7681 74.4494 38.0973 73.8634 38.6834C73.2773 39.2694 72.9481 40.0643 72.9481 40.8931C72.9481 41.7219 73.2773 42.5167 73.8634 43.1028C74.4494 43.6888 75.2443 44.0181 76.0731 44.0181C76.9019 44.0181 77.6967 43.6888 78.2828 43.1028C78.8689 42.5167 79.1981 41.7219 79.1981 40.8931C79.1981 40.0643 78.8689 39.2694 78.2828 38.6834C77.6967 38.0973 76.9019 37.7681 76.0731 37.7681ZM68.7814 45.0597C67.9526 45.0597 67.1578 45.389 66.5717 45.975C65.9857 46.5611 65.6564 47.3559 65.6564 48.1847C65.6564 49.0135 65.9857 49.8084 66.5717 50.3944C67.1578 50.9805 67.9526 51.3097 68.7814 51.3097C69.6102 51.3097 70.4051 50.9805 70.9911 50.3944C71.5772 49.8084 71.9064 49.0135 71.9064 48.1847C71.9064 47.3559 71.5772 46.5611 70.9911 45.975C70.4051 45.389 69.6102 45.0597 68.7814 45.0597Z" fill="#594545"/>
</svg>
