<svg width="100" height="100" viewBox="0 0 100 100" fill="none" xmlns="http://www.w3.org/2000/svg">
<path d="M79.4897 12.1431H89.5314V20.4764H82.9064L65.2397 38.1431C63.6981 35.8097 61.6981 33.8097 59.3647 32.2681L79.4897 12.1431ZM47.8647 32.9764C52.285 32.9764 56.5243 34.7323 59.6499 37.858C62.7755 40.9836 64.5314 45.2228 64.5314 49.6431C64.5314 57.2264 59.4064 63.8931 52.0314 65.7681V66.3097C52.0314 71.8351 49.8365 77.1341 45.9295 81.0411C42.0225 84.9481 36.7234 87.1431 31.1981 87.1431C25.6727 87.1431 20.3737 84.9481 16.4667 81.0411C12.5597 77.1341 10.3647 71.8351 10.3647 66.3097C10.3647 60.7844 12.5597 55.4853 16.4667 51.5783C20.3737 47.6713 25.6727 45.4764 31.1981 45.4764H31.7397C33.6147 38.1431 40.2397 32.9764 47.8647 32.9764ZM47.8647 43.3931C46.2071 43.3931 44.6174 44.0515 43.4453 45.2236C42.2732 46.3957 41.6147 47.9855 41.6147 49.6431C41.6147 51.3007 42.2732 52.8904 43.4453 54.0625C44.6174 55.2346 46.2071 55.8931 47.8647 55.8931C49.5223 55.8931 51.1121 55.2346 52.2842 54.0625C53.4563 52.8904 54.1147 51.3007 54.1147 49.6431C54.1147 47.9855 53.4563 46.3957 52.2842 45.2236C51.1121 44.0515 49.5223 43.3931 47.8647 43.3931ZM26.7814 58.9764L23.8231 61.8931L35.6147 73.6847L38.5731 70.7264L26.7814 58.9764Z" fill="#594545"/>
</svg>
