<svg width="35" height="35" viewBox="0 0 35 35" fill="none" xmlns="http://www.w3.org/2000/svg">
<path d="M30.625 0.625C31.6196 0.625 32.5734 1.02009 33.2766 1.72335C33.9799 2.42661 34.375 3.38044 34.375 4.375V30.625C34.375 31.6196 33.9799 32.5734 33.2766 33.2766C32.5734 33.9799 31.6196 34.375 30.625 34.375H4.375C3.38044 34.375 2.42661 33.9799 1.72335 33.2766C1.02009 32.5734 0.625 31.6196 0.625 30.625V4.375C0.625 3.38044 1.02009 2.42661 1.72335 1.72335C2.42661 1.02009 3.38044 0.625 4.375 0.625H30.625ZM29.6875 29.6875V19.75C29.6875 18.1289 29.0435 16.5741 27.8972 15.4278C26.7509 14.2815 25.1961 13.6375 23.575 13.6375C21.9812 13.6375 20.125 14.6125 19.225 16.075V13.9938H13.9938V29.6875H19.225V20.4437C19.225 19 20.3875 17.8188 21.8313 17.8188C22.5274 17.8188 23.1951 18.0953 23.6874 18.5876C24.1797 19.0799 24.4562 19.7476 24.4562 20.4437V29.6875H29.6875ZM7.9 11.05C8.73543 11.05 9.53665 10.7181 10.1274 10.1274C10.7181 9.53665 11.05 8.73543 11.05 7.9C11.05 6.15625 9.64375 4.73125 7.9 4.73125C7.0596 4.73125 6.25361 5.0651 5.65936 5.65936C5.0651 6.25361 4.73125 7.0596 4.73125 7.9C4.73125 9.64375 6.15625 11.05 7.9 11.05ZM10.5063 29.6875V13.9938H5.3125V29.6875H10.5063Z" fill="#594545"/>
</svg>
