<svg width="100" height="100" viewBox="0 0 100 100" fill="none" xmlns="http://www.w3.org/2000/svg">
<path d="M66.6667 38H54.1667V60.9167C54.1667 63.6793 53.0692 66.3289 51.1157 68.2824C49.1622 70.2359 46.5127 71.3333 43.75 71.3333C40.9873 71.3333 38.3378 70.2359 36.3843 68.2824C34.4308 66.3289 33.3333 63.6793 33.3333 60.9167C33.3333 58.154 34.4308 55.5045 36.3843 53.551C38.3378 51.5975 40.9873 50.5 43.75 50.5C46.125 50.5 48.25 51.2917 50 52.5833V29.6667H66.6667V38ZM79.1667 13C81.3768 13 83.4964 13.878 85.0592 15.4408C86.622 17.0036 87.5 19.1232 87.5 21.3333V79.6667C87.5 81.8768 86.622 83.9964 85.0592 85.5592C83.4964 87.122 81.3768 88 79.1667 88H20.8333C18.6232 88 16.5036 87.122 14.9408 85.5592C13.378 83.9964 12.5 81.8768 12.5 79.6667V21.3333C12.5 19.1232 13.378 17.0036 14.9408 15.4408C16.5036 13.878 18.6232 13 20.8333 13H79.1667ZM20.8333 21.3333V79.6667H79.1667V21.3333H20.8333Z" fill="#594545"/>
</svg>
