<svg width="80" height="80" viewBox="0 0 80 80" fill="none" xmlns="http://www.w3.org/2000/svg">
<path d="M62.2967 27.3187L35.7901 56.5916C35.5553 56.853 35.2358 57 34.9024 57C34.569 57 34.2494 56.853 34.0147 56.5916L20.5363 41.7066C20.2996 41.4473 20.1665 41.0944 20.1665 40.7262C20.1665 40.358 20.2996 40.0051 20.5363 39.7458L22.2868 37.8127C22.5215 37.5513 22.8411 37.4043 23.1745 37.4043C23.5079 37.4043 23.8274 37.5513 24.0622 37.8127L34.8899 49.7704L58.7708 23.3972C59.2654 22.8676 60.0516 22.8676 60.5462 23.3972L62.2967 25.358C62.5334 25.6172 62.6665 25.9701 62.6665 26.3383C62.6665 26.7065 62.5334 27.0594 62.2967 27.3187Z" fill="#815B5B"/>
<rect x="1" y="1" width="78" height="78" rx="39" stroke="#815B5B" stroke-width="2"/>
</svg>
