<svg width="100" height="100" viewBox="0 0 100 100" fill="none" xmlns="http://www.w3.org/2000/svg">
<path d="M16.3333 16.5C11.7083 16.5 8 20.2083 8 24.8333V74.8333C8 77.0435 8.87797 79.1631 10.4408 80.7259C12.0036 82.2887 14.1232 83.1667 16.3333 83.1667H83C85.2101 83.1667 87.3298 82.2887 88.8926 80.7259C90.4554 79.1631 91.3333 77.0435 91.3333 74.8333V24.8333C91.3333 20.2083 87.5833 16.5 83 16.5H16.3333ZM16.3333 24.8333H45.5V33.7083C38.1667 35.625 33 42.25 33 49.8333C33 57.4167 38.1667 64.0417 45.5 65.9583V74.8333H16.3333V66.5H28.8333V33.1667H16.3333V24.8333ZM53.8333 24.8333H83V33.1667H70.5V66.5H83V74.8333H53.8333V65.9583C61.1667 64.0417 66.3333 57.4167 66.3333 49.8333C66.3333 42.25 61.1667 35.625 53.8333 33.7083V24.8333ZM16.3333 41.5H20.5V58.1667H16.3333V41.5ZM78.8333 41.5H83V58.1667H78.8333V41.5ZM53.8333 42.625C56.4167 44.125 58 46.875 58 49.8333C58 52.7917 56.4167 55.5417 53.8333 57.0417V42.625ZM45.5 42.625V57.0417C42.9167 55.5417 41.3333 52.7917 41.3333 49.8333C41.3333 46.875 42.9167 44.125 45.5 42.625Z" fill="#594545"/>
</svg>
